<svg xmlns="http://www.w3.org/2000/svg" fill="none" viewBox="0 0 92 22"><g fill="#fff" clip-path="url(#a)"><path fill-opacity=".8" d="M.1 14.6c0-1.5.3-2.7.9-3.8.5-1 1.3-2 2.4-2.5a7 7 0 0 1 7.7.3c1.2.9 2 2.1 2.2 3.5h-2.5c-.2-.8-.7-1.5-1.4-2S7.8 9.3 7 9.4a4 4 0 0 0-3.2 1.3c-.8 1-1.2 2.2-1.2 3.9 0 1.7.4 3 1.2 3.9A4 4 0 0 0 7 19.8c1 0 1.9-.2 2.5-.7.7-.5 1.2-1.2 1.4-2h2.5A6.2 6.2 0 0 1 7 21.8a7 7 0 0 1-3.6-.9c-1-.6-1.8-1.5-2.3-2.5a8 8 0 0 1-1-3.8h.1Zm22.4 7.2c-1.3 0-2.5-.3-3.6-.9-1-.6-1.9-1.5-2.5-2.5a8 8 0 0 1-.8-3.8c0-1.4.3-2.7.9-3.8A6 6 0 0 1 19 8.3a7.2 7.2 0 0 1 7.2 0c1 .6 1.9 1.4 2.5 2.5.6 1 1 2.3 1 3.8a8 8 0 0 1-1 3.8c-.6 1-1.5 2-2.6 2.5-1 .6-2.3 1-3.6 1v-.1Zm0-2a5 5 0 0 0 2.3-.6 4 4 0 0 0 1.8-1.8 5 5 0 0 0 .7-2.8c0-1.1-.2-2-.7-2.9-.4-.7-1-1.3-1.7-1.7a4.9 4.9 0 0 0-4.7 0c-.7.4-1.2 1-1.6 1.7-.5 1-.7 1.9-.7 2.9a6 6 0 0 0 .6 2.9 4.6 4.6 0 0 0 4 2.3ZM35 2.8v18.8h-2.3V2.7H35Zm10 19a6.8 6.8 0 0 1-6.9-7.2 7 7 0 0 1 1-3.8c.5-1 1.4-2 2.5-2.5a7.2 7.2 0 0 1 7.2 0c1 .6 1.9 1.4 2.5 2.5.6 1 .9 2.3.9 3.8a7 7 0 0 1-1 3.8c-.6 1-1.5 2-2.5 2.5-1.1.6-2.3 1-3.7 1v-.1Zm0-2c.9 0 1.7-.2 2.4-.6.7-.4 1.3-1 1.7-1.8a5 5 0 0 0 .7-2.8c0-1.1-.2-2-.6-2.9-.4-.7-1-1.3-1.8-1.7a4.9 4.9 0 0 0-4.7 0c-.6.4-1.2 1-1.6 1.7a6 6 0 0 0-.6 2.9 6 6 0 0 0 .6 2.9 4.6 4.6 0 0 0 4 2.3Zm12.6-10c.4-.7 1-1.3 1.7-1.8.8-.4 1.8-.7 2.8-.6v2.4h-.6c-2.6 0-4 1.4-4 4.2v7.6h-2.3v-14h2.4V10Zm7.9 12c-.5 0-.8-.2-1.1-.5-.3-.3-.5-.7-.5-1.2a1.5 1.5 0 0 1 1.6-1.5c.4 0 .8.1 1 .4a1.5 1.5 0 0 1 0 2.2c-.2.4-.6.5-1 .5Z"/><path d="M74 7.4v14.2h-4.3V7.4h4.4Zm9.7 14.4a8 8 0 0 1-3.8-1c-1-.5-2-1.4-2.6-2.5a8 8 0 0 1 0-7.7c.6-1 1.6-2 2.7-2.5a7.8 7.8 0 0 1 7.5 0c1.1.6 2 1.4 2.7 2.5a8 8 0 0 1 0 7.7c-.7 1.1-1.6 2-2.7 2.6-1.2.6-2.4.9-3.8.9Zm0-3.8c.8 0 1.5-.3 2-.9.7-.6 1-1.5 1-2.6 0-1.2-.3-2-.9-2.7a2.7 2.7 0 0 0-2-.9c-1 0-1.6.3-2.2 1-.5.5-.8 1.4-.8 2.6 0 1.1.3 2 .8 2.6.6.6 1.3 1 2 1ZM74 2.7a2.3 2.3 0 1 1-4.6 0 2.3 2.3 0 0 1 4.6 0Z"/></g><defs><clipPath id="a"><path fill="#fff" d="M0 0h92v22H0z"/></clipPath></defs></svg>