<svg xmlns="http://www.w3.org/2000/svg" fill="none" viewBox="0 0 779 384"><path fill="#D9D9D9" fill-opacity="0.4" d="M38 39h2v-2h-2zm38.9 0h2v-2h-2zm38.9 0h2v-2h-2zm38.9 0h2v-2h-2zm38.9 0h2v-2h-2zm38.8 0h2v-2h-2zm38.9 0h2v-2h-2zm38.9 0h2v-2h-2zm38.9 0h2v-2h-2zm38.9 0h2v-2h-2zm38.9 0h2v-2h-2zm38.9 0h2v-2h-2zm38.9 0h2v-2h-2zm38.9 0h2v-2h-2zm38.8 0h2v-2h-2zm38.9 0h2v-2h-2zm38.9 0h2v-2h-2zm38.9 0h2v-2h-2zm38.9 0h2v-2h-2zM38 77.1h2v-2h-2zm38.9 0h2v-2h-2zm38.9 0h2v-2h-2zm38.9 0h2v-2h-2zm38.9 0h2v-2h-2zm38.8 0h2v-2h-2zm38.9 0h2v-2h-2zm38.9 0h2v-2h-2zm38.9 0h2v-2h-2zm38.9 0h2v-2h-2zm38.9 0h2v-2h-2zm38.9 0h2v-2h-2zm38.9 0h2v-2h-2zm38.9 0h2v-2h-2zm38.8 0h2v-2h-2zm38.9 0h2v-2h-2zm38.9 0h2v-2h-2zm38.9 0h2v-2h-2zm38.9 0h2v-2h-2zM38 115.3h2v-2h-2zm38.9 0h2v-2h-2zm38.9 0h2v-2h-2zm38.9 0h2v-2h-2zm38.9 0h2v-2h-2zm38.8 0h2v-2h-2zm38.9 0h2v-2h-2zm38.9 0h2v-2h-2zm38.9 0h2v-2h-2zm38.9 0h2v-2h-2zm38.9 0h2v-2h-2zm38.9 0h2v-2h-2zm38.9 0h2v-2h-2zm38.9 0h2v-2h-2zm38.8 0h2v-2h-2zm38.9 0h2v-2h-2zm38.9 0h2v-2h-2zm38.9 0h2v-2h-2zm38.9 0h2v-2h-2zM38 153.4h2v-2h-2zm38.9 0h2v-2h-2zm38.9 0h2v-2h-2zm38.9 0h2v-2h-2zm38.9 0h2v-2h-2zm38.8 0h2v-2h-2zm38.9 0h2v-2h-2zm38.9 0h2v-2h-2zm38.9 0h2v-2h-2zm38.9 0h2v-2h-2zm38.9 0h2v-2h-2zm38.9 0h2v-2h-2zm38.9 0h2v-2h-2zm38.9 0h2v-2h-2zm38.8 0h2v-2h-2zm38.9 0h2v-2h-2zm38.9 0h2v-2h-2zm38.9 0h2v-2h-2zm38.9 0h2v-2h-2z"/><path fill="#fff" fill-opacity="0.4" d="M38 191.5h2v-2h-2zm16.3 0h2v-2h-2zm16.3 0h2v-2h-2zm16.2 0h2v-2h-2zm16.3 0h2v-2h-2zm16.3 0h2v-2h-2zm16.3 0h2v-2h-2zm16.3 0h2v-2h-2zm16.2 0h2v-2h-2zm16.3 0h2v-2h-2zm16.3 0h2v-2h-2zm16.2 0h2v-2h-2zm16.3 0h2v-2h-2zm16.3 0h2v-2h-2zm16.4 0h2v-2h-2zm16.2 0h2v-2h-2zm16.3 0h2v-2h-2zm16.2 0h2v-2h-2zm16.3 0h2v-2h-2zm16.3 0h2v-2h-2zm16.3 0h2v-2h-2zm16.3 0h2v-2h-2zm16.2 0h2v-2h-2zm16.3 0h2v-2h-2zm16.3 0h2v-2h-2zm16.3 0h2v-2h-2zm16.3 0h2v-2h-2zm16.2 0h2v-2h-2zm16.3 0h2v-2h-2zm16.2 0h2v-2h-2zm16.4 0h2v-2h-2zm16.3 0h2v-2h-2zm16.3 0h2v-2h-2zm16.2 0h2v-2h-2zm16.3 0h2v-2h-2zm16.3 0h2v-2h-2zm16.2 0h2v-2h-2zm16.3 0h2v-2h-2zm16.3 0h2v-2h-2zm16.3 0h2v-2h-2zm16.3 0h2v-2h-2zm16.2 0h2v-2h-2zm16.3 0h2v-2h-2zm16.3 0h2v-2h-2z"/><path fill="#D9D9D9" fill-opacity="0.4" d="M38 229.6h2v-2h-2zm38.9 0h2v-2h-2zm38.9 0h2v-2h-2zm38.9 0h2v-2h-2zm38.9 0h2v-2h-2zm38.8 0h2v-2h-2zm38.9 0h2v-2h-2zm38.9 0h2v-2h-2zm38.9 0h2v-2h-2zm38.9 0h2v-2h-2zm38.9 0h2v-2h-2zm38.9 0h2v-2h-2zm38.9 0h2v-2h-2zm38.9 0h2v-2h-2zm38.8 0h2v-2h-2zm38.9 0h2v-2h-2zm38.9 0h2v-2h-2zm38.9 0h2v-2h-2zm38.9 0h2v-2h-2zM38 267.8h2v-2h-2zm38.9 0h2v-2h-2zm38.9 0h2v-2h-2zm38.9 0h2v-2h-2zm38.9 0h2v-2h-2zm38.8 0h2v-2h-2zm38.9 0h2v-2h-2zm38.9 0h2v-2h-2zm38.9 0h2v-2h-2zm38.9 0h2v-2h-2zm38.9 0h2v-2h-2zm38.9 0h2v-2h-2zm38.9 0h2v-2h-2zm38.9 0h2v-2h-2zm38.8 0h2v-2h-2zm38.9 0h2v-2h-2zm38.9 0h2v-2h-2zm38.9 0h2v-2h-2zm38.9 0h2v-2h-2zM38 305.9h2v-2h-2zm38.9 0h2v-2h-2zm38.9 0h2v-2h-2zm38.9 0h2v-2h-2zm38.9 0h2v-2h-2zm38.8 0h2v-2h-2zm38.9 0h2v-2h-2zm38.9 0h2v-2h-2zm38.9 0h2v-2h-2zm38.9 0h2v-2h-2zm38.9 0h2v-2h-2zm38.9 0h2v-2h-2zm38.9 0h2v-2h-2zm38.9 0h2v-2h-2zm38.8 0h2v-2h-2zm38.9 0h2v-2h-2zm38.9 0h2v-2h-2zm38.9 0h2v-2h-2zm38.9 0h2v-2h-2zM38 344h2v-2h-2zm38.9 0h2v-2h-2zm38.9 0h2v-2h-2zm38.9 0h2v-2h-2zm38.9 0h2v-2h-2zm38.8 0h2v-2h-2zm38.9 0h2v-2h-2zm38.9 0h2v-2h-2zm38.9 0h2v-2h-2zm38.9 0h2v-2h-2zm38.9 0h2v-2h-2zm38.9 0h2v-2h-2zm38.9 0h2v-2h-2zm38.9 0h2v-2h-2zm38.8 0h2v-2h-2zm38.9 0h2v-2h-2zm38.9 0h2v-2h-2zm38.9 0h2v-2h-2zm38.9 0h2v-2h-2z"/></svg>