<svg xmlns="http://www.w3.org/2000/svg" fill="none" viewBox="0 0 161 161"><path stroke="#fff" stroke-opacity=".7" stroke-width="4" d="M2 2h157v157H2V2Z"/><mask id="a" width="148" height="148" x="6" y="6" maskUnits="userSpaceOnUse" style="mask-type:luminance"><path fill="#fff" d="M154 11.4c0-2.4-2-4.4-4.4-4.4H11.4C9 7 7 9 7 11.4v138.2c0 2.4 2 4.4 4.4 4.4h138.2c2.4 0 4.4-2 4.4-4.4V11.4Z"/></mask><g mask="url(#a)"><path fill="#fff" fill-rule="evenodd" d="M39 62.3 2.4 126.1 3.2 4.7H72l-4.3 7.4 35.8 62.1 43.1-74 5 2.9-55.3 94.8h62.4v5.8H73.9l28.8 50.8-5 2.8-40.5-71.6-41.8 71.7-5-3 53.8-92H39Zm23.2 14.8c-1 1.8-1 4 0 5.7L69 95c1 1.8 3 3 5 3h12.4c2 0 4-1.2 5-3l7.2-12.2c1-1.8 1-4 0-5.7l-6.9-12a5.8 5.8 0 0 0-5-2.8H74.2a6 6 0 0 0-5 2.9l-6.9 12ZM64.5 18 42.3 56.6h44.5L64.5 17.9Z" clip-rule="evenodd"/></g></svg>