<svg xmlns="http://www.w3.org/2000/svg" fill="none" viewBox="0 0 161 161"><rect width="152.8" height="152.8" x="4.2" y="4" stroke="#fff" stroke-opacity=".7" stroke-width="7.1" rx="28.4"/><g filter="url(#a)"><path fill="#fff" d="M76.2 104.1a287.9 287.9 0 0 1-5-14H46.7l-5 14h-8a1525.7 1525.7 0 0 1 11.3-30 545.4 545.4 0 0 1 10.7-24.5h7a307.8 307.8 0 0 1 10.6 24.5 534.3 534.3 0 0 1 11.4 30h-8.4Zm-7.1-20.2a594.7 594.7 0 0 0-10.2-25.6A208.1 208.1 0 0 0 48.8 84H69Zm19.1-.2c0-3.6.5-6.7 1.6-9.4 1-2.7 2.4-5 4.1-6.8a17 17 0 0 1 6-4c2.3-.9 4.6-1.3 7-1.3 5.4 0 9.7 1.7 12.6 5.2 3 3.4 4.4 8.6 4.4 15.6v2.6h-28a15 15 0 0 0 3.6 9.7c2.2 2.2 5.5 3.3 10.1 3.3a28 28 0 0 0 10.5-2l1 6.2a32.7 32.7 0 0 1-21.5.7 17.7 17.7 0 0 1-10.2-11.2c-.8-2.6-1.2-5.5-1.2-8.6Zm28-4c.1-3.3-.7-6-2.4-8a8.4 8.4 0 0 0-7-3.3 10.1 10.1 0 0 0-7.7 3.5c-1 1-1.6 2.3-2.2 3.7l-1 4.1h20.4Z"/></g><defs><filter id="a" width="91.5" height="56.2" x="33.7" y="49.6" color-interpolation-filters="sRGB" filterUnits="userSpaceOnUse"><feFlood flood-opacity="0" result="BackgroundImageFix"/><feBlend in="SourceGraphic" in2="BackgroundImageFix" result="shape"/><feColorMatrix in="SourceAlpha" result="hardAlpha" values="0 0 0 0 0 0 0 0 0 0 0 0 0 0 0 0 0 0 127 0"/><feOffset dx="1.3" dy=".7"/><feGaussianBlur stdDeviation=".8"/><feComposite in2="hardAlpha" k2="-1" k3="1" operator="arithmetic"/><feColorMatrix values="0 0 0 0 1 0 0 0 0 1 0 0 0 0 1 0 0 0 0.15 0"/><feBlend in2="shape" result="effect1_innerShadow_665_5793"/></filter></defs></svg>