<svg xmlns="http://www.w3.org/2000/svg" fill="none" viewBox="0 0 222 222"><path fill="#fff" d="M174.64 0H47.36A47.37 47.37 0 0 0 0 47.36v127.28A47.37 47.37 0 0 0 47.36 222h127.28A47.37 47.37 0 0 0 222 174.64V47.36A47.37 47.37 0 0 0 174.64 0ZM12.34 174.64v-7.9l73-72.76 8.89 8.88-80.66 80.41a33.17 33.17 0 0 1-1.24-8.63Zm0-25.16v-17.76l55.25-55.25 8.88 8.88-64.14 64.13Zm0-35.27V96.69l37.73-37.74 8.88 8.88-46.62 46.38Zm0-35.03V61.42L32.3 41.44l8.88 8.88-28.86 28.86Zm6.4-51.8 5.19 5.18-11.1 11.1a29.08 29.08 0 0 1 5.92-16.28ZM19 195.11l83.62-83.62 8.88 8.88L28.12 204a38.98 38.98 0 0 1-9.13-8.88Zm21.46 13.82L120.37 129l8.88 8.88-71.28 71.04.74.74H47.36c-2.47 0-4.69-.25-6.9-.74Zm154.17-5.68a36.88 36.88 0 0 1-13.57 5.68l9.62-9.62 3.95 3.94Zm-31.08 5.68.74.74h-19.24l27.87-27.88 8.88 8.88-18.25 18.26Zm-34.53.74h-19l45.39-45.39 8.88 8.88-36.01 35.77.74.74Zm-35.03 0H74.74l63.15-63.15 8.88 8.88-53.53 53.53.74.74Zm115.69-35.03c0 7.4-2.47 14.3-6.42 19.98L27.38 18.75a35.04 35.04 0 0 1 19.98-6.42h127.28a35.16 35.16 0 0 1 35.03 35.03v127.28Z"/></svg>