<svg width="232" height="235" viewBox="0 0 232 235" fill="none" xmlns="http://www.w3.org/2000/svg">
<path d="M158.235 120.634C158.235 144.134 139.121 162.933 115.933 162.933C92.7454 162.933 73.632 144.132 73.632 120.632C73.632 97.1338 92.4332 78.3326 115.933 78.3326C139.433 78.3326 158.235 97.1338 158.235 120.634Z" fill="#E2E2E9"/>
<path fill-rule="evenodd" clip-rule="evenodd" d="M194.267 0H37.5996C16.919 0 0 16.919 0 37.5996V197.4C0 218.081 16.919 235 37.5996 235H194.267C214.948 235 231.867 218.081 231.867 197.4V37.5996C231.867 16.9212 214.948 0 194.267 0ZM115.933 194.268C75.1992 194.268 42.2996 161.367 42.2996 120.634C42.2996 79.9021 75.2003 47.0002 115.933 47.0002C156.667 47.0002 189.567 79.9009 189.567 120.634C189.567 161.367 156.666 194.268 115.933 194.268ZM197.5 52C207.165 52 215 44.165 215 34.5C215 24.835 207.165 17 197.5 17C187.835 17 180 24.835 180 34.5C180 44.165 187.835 52 197.5 52Z" fill="#E2E2E9" fill-opacity="0.75"/>
</svg>
