<svg xmlns="http://www.w3.org/2000/svg" fill="none" viewBox="0 0 256 256"><path fill="#fff" stroke="#fff" stroke-width="3.7" d="M74.3 71.5a10.6 10.6 0 0 1 6.2 18.4l-43.8 38.4 43.8 38.3a10.6 10.6 0 0 1-7 18.5c-2.5 0-5-1-6.9-2.6l-52.9-46.3a10.5 10.5 0 0 1 0-15.9l53-46.3c2-1.8 4.8-2.7 7.6-2.5Zm106.5 0c2.8-.2 5.5.7 7.6 2.5l53 46.3a10.6 10.6 0 0 1 0 16l-53 46.2a10.6 10.6 0 0 1-14-15.9l44-38.3-43.8-38.4a10.6 10.6 0 0 1 6.2-18.4Z"/><path fill="#C5C5C6" stroke="#C5C5C6" stroke-width="3.7" d="M150.4 35.2a12.4 12.4 0 0 1 13.2 16.2l-48.3 160.8a12.4 12.4 0 0 1-11.9 9 12.4 12.4 0 0 1-11.9-16l48.3-160.9a12.4 12.4 0 0 1 10.6-9.1Z"/></svg>