<svg xmlns="http://www.w3.org/2000/svg" fill="none" viewBox="0 0 208 213"><path fill="#fff" d="m89 108 7-12h16l7 12-7 13H96l-7-13Z"/><path fill="#fff" fill-opacity=".8" d="m58 91 9-13h15l8 13-8 12H67l-9-12Zm31-16 7-12h16l7 12-7 12H96l-7-12Zm28 16 7-13h16l9 13-9 12h-16l-7-12Zm-59 33 9-12h15l8 12-8 12H67l-9-12Z"/><path stroke="#fff" stroke-width="3.2" d="m40 117-6-10 6-11h14l8 11-8 10H40Zm87 16-6-11 6-10h14l6 10-6 11h-14Zm-29 17-8-10 8-11h14l6 11-6 10H98Z"/><path stroke="#fff" stroke-opacity=".6" stroke-width="3.2" d="m40 149-6-11 6-11h14l8 11-8 11H40Zm28 17-6-11 6-10h14l8 10-8 11H68Zm-57-65L3 91l8-11h14l6 11-6 10H11Zm-1 34-8-11 8-11h14l6 11-6 11H10Zm88 47-8-10 8-12h14l6 12-6 10H98Zm29-18-6-10 6-11h14l6 11-6 10h-14Zm28-15-6-11 6-11h14l8 11-8 11h-14ZM40 86l-6-11 6-11h14l8 11-8 11H40Zm28-14-6-11 6-11h14l8 11-8 11H68Zm31-16-8-11 8-10h14l6 10-6 11H99Zm28 16-6-11 6-11h14l6 11-6 11h-14Zm29 15-6-10 6-11h14l8 11-8 10h-14Zm-1 30-6-10 6-11h14l8 11-8 10h-14Z"/><path stroke="#fff" stroke-opacity=".3" stroke-width="3.2" d="m68 39-6-12 6-10h14l8 10-8 12H68ZM40 54l-6-10 6-11h14l8 11-8 10H40Zm86-15-8-12 8-10h14l6 10-6 12h-14Zm30 15-6-10 6-11h14l8 11-8 10h-14Zm30 47-8-10 8-11h14l6 11-6 10h-14ZM40 182l-6-10 6-12h14l8 12-8 10H40ZM98 22l-8-10 8-10h14l6 10-6 10H98ZM11 68 3 58l8-11h14l6 11-6 10H11Zm173 96-6-10 6-11h14l8 11-8 10h-14Zm-174 0-8-10 8-11h14l6 11-6 10H10Zm58 33-6-10 6-10h14l8 10-8 10H68Zm88-15-6-10 6-12h14l8 12-8 10h-14Zm-30 15-8-10 8-10h14l6 10-6 10h-14Zm60-64-8-11 8-10h14l6 10-6 11h-14Zm0-65-8-10 8-11h14l6 11-6 10h-14ZM98 211l-7-11 7-11h14l7 11-7 11H98Z"/></svg>