<svg width="256" height="256" viewBox="0 0 256 256" fill="none" xmlns="http://www.w3.org/2000/svg">
<path d="M128.5 30.0003C154.358 30.0003 179.158 40.2725 197.443 58.5573C215.727 76.8421 226 101.641 226 127.5C226 153.359 215.727 178.158 197.443 196.443C179.158 214.727 154.358 225 128.5 225L128.5 127.5L128.5 30.0003Z" fill="#AFAFB6"/>
<path d="M128.038 42.0144C150.832 42.0144 172.694 51.0696 188.812 67.1879C204.93 83.3062 213.985 105.167 213.985 127.962C213.985 150.757 204.93 172.618 188.812 188.736C172.694 204.854 150.832 213.91 128.038 213.91L128.038 127.962L128.038 42.0144Z" fill="white"/>
<path d="M128.499 225C102.641 225 77.8412 214.728 59.5565 196.443C41.2717 178.158 30.9995 153.359 30.9995 127.5C30.9995 101.642 41.2718 76.8422 59.5565 58.5575C77.8413 40.2728 102.641 30.0005 128.499 30.0005L128.499 41.646C105.729 41.646 83.8919 50.6913 67.7911 66.7921C51.6903 82.8929 42.645 104.73 42.645 127.5C42.645 150.27 51.6903 172.108 67.7911 188.208C83.8919 204.309 105.729 213.354 128.499 213.354L128.499 225Z" fill="#AFAFB6"/>
</svg>
