<svg xmlns="http://www.w3.org/2000/svg" fill="none" viewBox="0 0 240 175"><path fill="#fff" d="M111.4 149.6h25.7v-8.3h-120s-8.5 0-8.5-8.6v-16.3H137V108H8.6V17c0-8.7 8.5-8.7 8.5-8.7h154.3s8.6 0 8.6 8.7v22.7h8.6v-23C188.6 0 171.4 0 171.4 0H17.1S0 0 0 16.6V133c0 16.6 17.1 16.6 17.1 16.6h60v16.7H60v8.3h68.6v-8.3h-17.2v-16.7Z"/><path fill="#fff" d="M98.6 128.8c0 2.3-2 4.2-4.3 4.2a4.2 4.2 0 0 1-4.3-4.2c0-2.2 2-4.1 4.3-4.1 2.4 0 4.3 1.9 4.3 4.1Z"/><path fill="#fff" fill-rule="evenodd" d="M145.7 166.6v-111c0-4.5 3.8-8 8.5-8h77.3c4.7 0 8.5 3.6 8.5 8v111c0 4.4-3.8 8-8.5 8h-77.3c-4.7 0-8.5-3.6-8.5-8Zm85.7-8v-99h-77.1v99h77.1Zm-41.2 4.9c.7-.4 1.5-.6 2.3-.6 2.5 0 4.5 1.9 4.5 4.2v.8c-.5 2-2.3 3.4-4.5 3.4-2.5 0-4.5-1.9-4.5-4.2 0-1.5.9-2.9 2.2-3.6Z" clip-rule="evenodd"/></svg>