<svg width="342" height="180" viewBox="0 0 342 180" fill="none" xmlns="http://www.w3.org/2000/svg">
<path fill-rule="evenodd" clip-rule="evenodd" d="M72.8333 149.25H216.917C217.732 149.25 218.527 149.162 219.292 148.995C220.057 149.162 220.851 149.25 221.667 149.25H304C310.121 149.25 315.083 144.288 315.083 138.167C315.083 132.045 310.121 127.083 304 127.083H294.5C288.379 127.083 283.417 122.121 283.417 116C283.417 109.879 288.379 104.917 294.5 104.917H324.583C330.704 104.917 335.667 99.9544 335.667 93.8333C335.667 87.7121 330.704 82.75 324.583 82.75H289.75C295.871 82.75 300.833 77.7878 300.833 71.6666C300.833 65.5455 295.871 60.5833 289.75 60.5833H188.417C194.538 60.5833 199.5 55.6211 199.5 49.5C199.5 43.3788 194.538 38.4166 188.417 38.4166H98.1667C92.0455 38.4166 87.0833 43.3788 87.0833 49.5C87.0833 55.6211 92.0455 60.5833 98.1667 60.5833H34.8333C28.7122 60.5833 23.75 65.5455 23.75 71.6666C23.75 77.7878 28.7122 82.75 34.8333 82.75H74.4167C80.5378 82.75 85.5 87.7121 85.5 93.8333C85.5 99.9544 80.5378 104.917 74.4167 104.917H11.0833C4.96218 104.917 0 109.879 0 116C0 122.121 4.96218 127.083 11.0833 127.083H72.8333C66.7122 127.083 61.75 132.045 61.75 138.167C61.75 144.288 66.7122 149.25 72.8333 149.25ZM330.917 149.25C337.038 149.25 342 144.288 342 138.167C342 132.046 337.038 127.083 330.917 127.083C324.796 127.083 319.833 132.046 319.833 138.167C319.833 144.288 324.796 149.25 330.917 149.25Z" fill="#49494D" fill-opacity="0.25"/>
<path fill-rule="evenodd" clip-rule="evenodd" d="M113.692 150.378L107.84 151.21C104.695 151.657 101.791 149.47 101.354 146.325L85.5281 32.4442C85.0911 29.2994 87.2865 26.3877 90.4318 25.9407L202.908 9.95415C206.053 9.50711 208.957 11.694 209.394 14.8388L210.754 24.6249C210.828 25.1545 215.686 60.3036 225.33 130.072C225.814 133.576 223.398 136.813 219.934 137.302C219.897 137.308 219.86 137.313 219.822 137.317L113.692 150.378Z" fill="#49494D"/>
<path d="M109.69 157.361L103.246 158.267C99.7823 158.754 96.5797 156.34 96.0929 152.877L78.4643 27.4427C77.9775 23.979 80.3908 20.7764 83.8546 20.2896L207.721 2.88138C211.184 2.39458 214.387 4.80789 214.874 8.27165C214.874 8.27165 216.001 16.2918 216.389 19.0506" stroke="#7D7D82" stroke-width="3.95833" stroke-linecap="round"/>
<path d="M217.708 26.3511L218.5 31.2917" stroke="#7D7D82" stroke-width="3.95833" stroke-linecap="round"/>
<path d="M145.367 29.9744L250.869 41.0632C258.479 41.863 263.999 48.6801 263.199 56.2896L251.945 163.366C251.145 170.976 244.328 176.496 236.719 175.697L131.216 164.608C123.607 163.808 118.086 156.991 118.886 149.381L130.14 42.3045C130.94 34.695 137.757 29.1746 145.367 29.9744Z" fill="#2B2B2D" stroke="#AFAFB6" stroke-width="3.95833"/>
<path fill-rule="evenodd" clip-rule="evenodd" d="M142.012 46.7365C142.286 44.1276 144.624 42.2349 147.233 42.5091L246.436 52.9358C249.045 53.21 250.938 55.5473 250.664 58.1563L241.892 141.613C241.618 144.222 239.281 146.115 236.672 145.841L137.468 135.414C134.859 135.14 132.966 132.802 133.241 130.194L142.012 46.7365Z" fill="#2B2B2D"/>
<path fill-rule="evenodd" clip-rule="evenodd" d="M146.84 111.056L162.352 100.594C164.939 98.8491 168.411 99.2481 170.534 101.534L181.892 113.762C182.459 114.372 183.402 114.439 184.049 113.915L208.337 94.2345C211.263 91.8638 215.599 92.5543 217.643 95.7166L233.446 120.159L235.716 123.946L234.629 136.81C234.554 137.698 233.762 138.349 232.876 138.251L142.685 128.23C141.828 128.135 141.204 127.371 141.284 126.511L142.479 113.53L146.84 111.056Z" fill="#AFAFB6"/>
<path d="M150.175 44.8084L243.08 54.5731C246.341 54.9159 248.707 57.8375 248.364 61.0987L240.255 138.257C239.912 141.518 236.99 143.884 233.729 143.541L140.824 133.777C137.563 133.434 135.197 130.512 135.54 127.251L143.65 50.0927C143.992 46.8315 146.914 44.4656 150.175 44.8084Z" stroke="#E2E2E9" stroke-width="3.95833"/>
<circle cx="166.3" cy="73.1701" r="9.5" transform="rotate(6 166.3 73.1701)" fill="#2B2B2D" stroke="white" stroke-width="3.95833"/>
<path d="M143.653 113.506C149.886 109.202 162.351 100.594 162.351 100.594C164.938 98.8492 168.41 99.2483 170.533 101.534L181.891 113.762C182.458 114.373 183.401 114.439 184.048 113.915L208.336 94.2346C211.054 92.0326 215.042 92.4505 217.244 95.1682C217.386 95.3438 217.519 95.5269 217.642 95.7167C217.642 95.7167 231.842 118.249 235.16 123.514" stroke="white" stroke-width="3.95833" stroke-linecap="round"/>
</svg>
