<svg xmlns="http://www.w3.org/2000/svg" fill="none" viewBox="0 0 227 162"><path fill="#fff" d="M226.2 146.4V15a15 15 0 0 0-15-15H15A15 15 0 0 0 0 15v131.4a15 15 0 0 0 15 15h196.1a15 15 0 0 0 15-15ZM17.7 27.8c-2.5 0-4.4-2-4.4-4.3V11.6c0-2.4 2-4.3 4.4-4.3h11.8c2.4 0 4.4 2 4.4 4.3v11.9c0 2.4-2 4.3-4.4 4.3H17.7Zm35.2 0c-2.4 0-4.4-2-4.4-4.3V11.6c0-2.4 2-4.3 4.4-4.3h11.8c2.4 0 4.4 2 4.4 4.3v11.9c0 2.4-2 4.3-4.4 4.3H52.9Zm35.2 0c-2.4 0-4.4-2-4.4-4.3V11.6c0-2.4 2-4.3 4.4-4.3H100c2.5 0 4.4 2 4.4 4.3v11.9c0 2.4-2 4.3-4.4 4.3H88.1Zm35.3 0c-2.5 0-4.4-2-4.4-4.3V11.6c0-2.4 2-4.3 4.4-4.3h11.8c2.4 0 4.3 2 4.3 4.3v11.9c0 2.4-2 4.3-4.3 4.3h-11.8Zm35.2 0c-2.4 0-4.4-2-4.4-4.3V11.6c0-2.4 2-4.3 4.4-4.3h11.8c2.4 0 4.4 2 4.4 4.3v11.9c0 2.4-2 4.3-4.4 4.3h-11.8Zm35.2 0c-2.4 0-4.4-2-4.4-4.3V11.6c0-2.4 2-4.3 4.4-4.3h11.8c2.5 0 4.4 2 4.4 4.3v11.9c0 2.4-2 4.3-4.4 4.3h-11.8Zm-186.4 96V37.7c0-1.3 1-2.2 2.2-2.2H70c1.2 0 2.2 1 2.2 2.2v86.1c0 1.2-1 2.2-2.2 2.2H9.6c-1.2 0-2.2-1-2.2-2.2Zm73.4 0V37.7c0-1.3 1-2.2 2.2-2.2h60.4c1.2 0 2.2 1 2.2 2.2v86.1c0 1.2-1 2.2-2.2 2.2H83c-1.2 0-2.2-1-2.2-2.2Zm73.4 0V37.7c0-1.3 1-2.2 2.2-2.2h60.4c1.2 0 2.2 1 2.2 2.2v86.1c0 1.2-1 2.2-2.2 2.2h-60.4c-1.2 0-2.2-1-2.2-2.2ZM17.7 154.4c-2.5 0-4.4-2-4.4-4.4v-11.8c0-2.5 2-4.4 4.4-4.4h11.8c2.4 0 4.4 2 4.4 4.4V150c0 2.4-2 4.4-4.4 4.4H17.7Zm35.2 0c-2.4 0-4.4-2-4.4-4.4v-11.8c0-2.5 2-4.4 4.4-4.4h11.8c2.4 0 4.4 2 4.4 4.4V150c0 2.4-2 4.4-4.4 4.4H52.9Zm35.2 0c-2.4 0-4.4-2-4.4-4.4v-11.8c0-2.5 2-4.4 4.4-4.4H100c2.5 0 4.4 2 4.4 4.4V150c0 2.4-2 4.4-4.4 4.4H88.1Zm35.3 0c-2.5 0-4.4-2-4.4-4.4v-11.8c0-2.5 2-4.4 4.4-4.4h11.8a4.4 4.4 0 0 1 4.3 4.4v12.2c-.2 2.2-2 4-4.3 4h-11.8Zm35.2 0c-2.4 0-4.4-2-4.4-4.4v-11.8c0-2.5 2-4.4 4.4-4.4h11.8c2.4 0 4.4 2 4.4 4.4V150c0 2.4-2 4.4-4.4 4.4h-11.8Zm35.2 0c-2.4 0-4.4-2-4.4-4.4v-11.8c0-2.5 2-4.4 4.4-4.4h11.8c2.5 0 4.4 2 4.4 4.4V150c0 2.4-2 4.4-4.4 4.4h-11.8Z"/></svg>