<svg xmlns="http://www.w3.org/2000/svg" fill="none" viewBox="0 0 154 166"><path fill="#fff" fill-rule="evenodd" d="M143 67.7h-23l22-25.4h6.8c2.7 0 4.9 2.1 4.9 4.8v8.3L143 67.7ZM94.7 42.3h23.6l-22 25.4H72.7l22-25.4Zm-23.6 0H48L26 67.7h23l22-25.4Zm-65.2 0h18.5l-22 25.4H1V47.1c0-2.7 2.1-4.8 4.8-4.8ZM10.7 78v55.2a23 23 0 0 0 23 23H121a23 23 0 0 0 23-23V78h9.7v55.2c0 18-14.7 32.7-32.7 32.7H33.7c-18 0-32.7-14.7-32.7-32.7V78h9.7Z" clip-rule="evenodd"/><path fill="#fff" fill-opacity=".7" fill-rule="evenodd" d="M93.5 4.7 67.7 7.6l27 24.6 26-2.9L93.4 4.7ZM142 27l5-.5c2.3-.3 4-2.4 3.7-4.7l-1.1-10.1A13 13 0 0 0 135.2 0l-20.3 2.2L142 27ZM21.4 12.7l24-2.7 27 24.7-25.2 2.8-25.8-24.8ZM3.4 18A13 13 0 0 0 0 28.2l1.1 10A4.3 4.3 0 0 0 5.8 42L26 39.8 3.4 18Z" clip-rule="evenodd"/></svg>