<svg width="444" height="417" viewBox="0 0 444 417" fill="none" xmlns="http://www.w3.org/2000/svg">
<path d="M444 88C444 73.1479 438.543 58.9041 428.828 48.4021C419.114 37.9001 405.938 32.0001 392.2 32.0001H188.802C184.422 32.0152 180.137 30.623 176.49 28.0001L150.775 9.4101C142.26 3.25424 132.242 -0.0215655 121.998 0.000106845H51.8C38.0618 0.000106845 24.8863 5.90009 15.1719 16.4021C5.45748 26.9041 0 41.1479 0 56.0001V104C0 106.122 0.77964 108.157 2.16741 109.657C3.55518 111.157 5.4374 112 7.4 112H436.6C438.563 112 440.445 111.157 441.833 109.657C443.22 108.157 444 106.122 444 104V88Z" fill="#232328" fill-opacity="0.7"/>
<path d="M51.7998 0.5H121.999C132.134 0.478557 142.05 3.7197 150.482 9.81543L176.197 28.4053L176.198 28.4062C179.927 31.0885 184.314 32.5142 188.802 32.499V32.5H392.2C405.792 32.5001 418.837 38.337 428.461 48.7412C438.086 59.147 443.5 73.2685 443.5 88V104C443.5 106.001 442.765 107.913 441.466 109.317C440.168 110.72 438.416 111.5 436.6 111.5H7.40039C5.58353 111.5 3.83173 110.72 2.53418 109.317C1.23548 107.913 0.5 106.001 0.5 104V56C0.500013 41.2685 5.9137 27.147 15.5391 16.7412C25.1632 6.33696 38.2075 0.500056 51.7998 0.5Z" stroke="#FCFCFD" stroke-opacity="0.1"/>
<rect y="68" width="444" height="349" rx="18" fill="#232328"/>
<rect x="0.5" y="68.5" width="443" height="348" rx="17.5" stroke="#FCFCFD" stroke-opacity="0.1"/>
</svg>
