<svg xmlns="http://www.w3.org/2000/svg" viewBox="0 0 512 512"><path d="M64 192v-72a40 40 0 0 1 40-40h75.9a40 40 0 0 1 22.2 6.7l27.8 18.6a40 40 0 0 0 22.2 6.7H408a40 40 0 0 1 40 40v40" style="fill:none;stroke:#e2e2e9;stroke-linecap:round;stroke-linejoin:round;stroke-width:32px"/><path d="M479.9 226.6 463.7 392a40 40 0 0 1-40 40H88.4a40 40 0 0 1-40-40L32.1 226.6A32 32 0 0 1 64 192h384.1a32 32 0 0 1 31.8 34.6Z" style="fill:none;stroke:#e2e2e9;stroke-linecap:round;stroke-linejoin:round;stroke-width:32px"/></svg>