<svg width="256" height="256" viewBox="0 0 256 256" fill="none" xmlns="http://www.w3.org/2000/svg">
<circle cx="128" cy="128" r="96" stroke="#A9A9AD" stroke-width="12"/>
<path d="M96.3501 163V128.308H88.9087V119.609H96.3501V101.267C96.3501 94.9788 97.7476 90.1576 100.543 86.8037C103.407 83.4498 107.6 81.7729 113.12 81.7729C114.587 81.7729 116.194 81.9825 117.941 82.4017C119.758 82.821 121.33 83.5197 122.657 84.4979L118.57 91.5201C117.941 90.8913 117.242 90.472 116.474 90.2624C115.705 89.9829 114.936 89.8432 114.168 89.8432C111.582 89.8432 109.591 90.7166 108.194 92.4634C106.796 94.2102 106.097 97.1798 106.097 101.372V119.609H119.827V128.308H106.097V163H96.3501Z" fill="white"/>
<path d="M148.85 135.75L159.226 119.609H169.078L152.413 142.877L148.85 135.75ZM170.755 163H159.016L126.001 119.609H138.054L170.755 163ZM147.802 146.859L136.377 163H126.525L143.085 140.361L147.802 146.859Z" fill="white"/>
</svg>
