<svg xmlns="http://www.w3.org/2000/svg" fill="none" viewBox="0 0 256 256"><rect width="68" height="69" x="53" y="47" fill="#5D5D60" rx="8"/><rect width="68" height="69" x="51" y="139" fill="#A9A9AD" rx="8"/><path fill="#fff" d="M145 169.3c0-.3.3-.6.5-.7 22.5-4.3 25.2-7.8 28.5-37.5 0-.3.4-.5.7-.5.3 0 .6.2.6.5 3.4 29.7 6 33.2 28.5 37.5.3.1.6.4.6.7 0 .3-.3.6-.6.6-22.4 4.4-25.1 8-28.5 37.5 0 .4-.3.6-.6.6a.6.6 0 0 1-.7-.6c-3.3-29.6-6-33.1-28.5-37.5a.7.7 0 0 1-.5-.6Z"/><mask id="a" fill="#fff"><rect width="69" height="68" x="140" y="47" rx="8"/></mask><rect width="69" height="68" x="140" y="47" stroke="#8E8E94" stroke-width="20" mask="url(#a)" rx="8"/></svg>