<svg xmlns="http://www.w3.org/2000/svg" fill="none" viewBox="0 0 256 256"><path fill="#fff" d="M122.4 147a20.6 20.6 0 1 0 0-41.2 20.6 20.6 0 0 0 0 41.2ZM65 118.8A22 22 0 1 0 65 75a22 22 0 0 0 0 43.8Z"/><path fill="#fff" fill-opacity=".8" d="M180.4 111.8a29.2 29.2 0 1 0 0-58.5 29.2 29.2 0 0 0 0 58.5Z"/><path fill="#fff" fill-opacity=".5" d="M170 194.8a22 22 0 1 0 0-43.8 22 22 0 0 0 0 43.8Z"/><path fill="#fff" fill-opacity=".7" d="M122 75.2a14.6 14.6 0 1 0 0-29.2 14.6 14.6 0 0 0 0 29.2Zm-39.4 120a14.6 14.6 0 1 0 0-29.2 14.6 14.6 0 0 0 0 29.2Z"/><path fill="#fff" d="M192.3 140.6a7.3 7.3 0 1 0 0-14.6 7.3 7.3 0 0 0 0 14.6Zm-63 69a7.3 7.3 0 1 0 0-14.6 7.3 7.3 0 0 0 0 14.6Z"/></svg>