<svg xmlns="http://www.w3.org/2000/svg" fill="none" viewBox="0 0 256 256"><path stroke="#E2E2E9" stroke-linecap="round" stroke-linejoin="round" stroke-width="12.6" d="M194 153V84a13 13 0 1 0-25 0v44"/><path stroke="#E2E2E9" stroke-linecap="round" stroke-linejoin="round" stroke-width="12.6" d="M169 128V59a13 13 0 1 0-25 0v63m-25 0V65a13 13 0 0 0-25 0v88"/><path stroke="#E2E2E9" stroke-linecap="round" stroke-linejoin="round" stroke-width="12.6" d="M144 122V46a13 13 0 0 0-25 0v76m75 31c0 46-25 69-59 69-35 0-49-15-57-34l-21-57c-2-7-1-13 5-17 6-3 14-2 17 5l15 34"/></svg>