<svg width="23" height="23" viewBox="0 0 23 23" fill="none" xmlns="http://www.w3.org/2000/svg">
<path d="M11.4965 1C9.42049 1 7.3911 1.61561 5.66496 2.76898C3.93882 3.92235 2.59346 5.56168 1.799 7.47966C1.00455 9.39765 0.796682 11.5081 1.20169 13.5443C1.6067 15.5804 2.6064 17.4507 4.07436 18.9187C5.54232 20.3866 7.41262 21.3863 9.44874 21.7913C11.4849 22.1963 13.5954 21.9885 15.5133 21.194C17.4313 20.3995 19.0707 19.0542 20.224 17.328C21.3774 15.6019 21.993 13.5725 21.993 11.4965C21.993 8.71266 20.8871 6.04283 18.9187 4.07435C16.9502 2.10588 14.2804 1 11.4965 1Z" stroke="#B1B1B7" stroke-width="1.90845" stroke-miterlimit="10"/>
<path d="M8.15668 8.29373C8.15668 8.29373 8.20677 7.25004 9.32382 6.35128C9.98641 5.81751 10.7808 5.66304 11.4965 5.65231C12.1483 5.64396 12.7304 5.75191 13.0787 5.9177C13.6751 6.20158 14.8363 6.89459 14.8363 8.36828C14.8363 9.9189 13.8224 10.6232 12.6672 11.3979C11.512 12.1727 11.1983 13.0136 11.1983 13.8825" stroke="#E2E2E9" stroke-width="1.6699" stroke-miterlimit="10" stroke-linecap="round"/>
<path d="M11.1387 18.1761C11.7975 18.1761 12.3315 17.6421 12.3315 16.9833C12.3315 16.3246 11.7975 15.7905 11.1387 15.7905C10.48 15.7905 9.94594 16.3246 9.94594 16.9833C9.94594 17.6421 10.48 18.1761 11.1387 18.1761Z" fill="#E2E2E9"/>
</svg>
