<svg width="19" height="21" viewBox="0 0 19 21" fill="none" xmlns="http://www.w3.org/2000/svg">
<path d="M3.02537 9.31123C3.20929 8.8504 3.86159 8.8504 4.04552 9.31123L6.29679 14.952C6.44075 15.3127 6.17508 15.7048 5.78672 15.7048H1.28417C0.895812 15.7048 0.630141 15.3127 0.774096 14.952L3.02537 9.31123Z" fill="#6F6F73"/>
<path d="M8.80909 1.80866C8.96281 1.28133 9.70987 1.28133 9.86359 1.80865L13.7092 15.0007C13.8117 15.3521 13.5481 15.7035 13.182 15.7035H5.49068C5.12458 15.7035 4.86097 15.3521 4.96343 15.0007L8.80909 1.80866Z" fill="#8F8F95"/>
<path d="M12.0673 6.47309C12.2145 5.93353 12.9798 5.93353 13.127 6.47308L15.4697 15.0612C15.565 15.4106 15.302 15.7549 14.9399 15.7549H10.2545C9.89233 15.7549 9.62933 15.4106 9.72463 15.0612L12.0673 6.47309Z" fill="#AFAFB6"/>
<path d="M14.766 9.48702C14.9517 9.03098 15.5975 9.03098 15.7832 9.48702L18.0283 14.999C18.1754 15.3602 17.9097 15.7554 17.5197 15.7554H13.0295C12.6395 15.7554 12.3737 15.3602 12.5209 14.999L14.766 9.48702Z" fill="#E9E9E9"/>
</svg>
