<svg xmlns="http://www.w3.org/2000/svg" fill="none" viewBox="0 0 292 292"><path fill="#fff" fill-opacity=".5" d="M159.8 137.7a7.7 7.7 0 0 1 13.3 0l16.4 28.3c3 5.1-.8 11.5-6.7 11.5h-32.7a7.6 7.6 0 0 1-6.6-11.5l16.3-28.3Z"/><path fill="#fff" d="M121.4 136a7.7 7.7 0 0 1 13.3 0l23.5 40.8c3 5.1-.7 11.5-6.6 11.5h-47.1c-6 0-9.6-6.4-6.7-11.5l23.6-40.8Z"/><path fill="#fff" fill-opacity=".8" d="M195.7 119.4a11.3 11.3 0 1 1-22.6 0 11.3 11.3 0 0 1 22.6 0Z"/><path fill="#000" d="M123.3 170.3a7.3 7.3 0 0 1 1.6-6 26 26 0 0 1 1.9-2.3c.7-.6 1.2-1.3 1.7-1.9a3 3 0 0 0 .7-1.8c0-.9-.3-1.5-.9-1.8a3 3 0 0 0-1.8-.6c-.8 0-1.5.2-2.1.6-.6.3-1.2.8-1.9 1.4l-4.5-4.1c1.2-1.4 2.6-2.5 4.2-3.3a12.8 12.8 0 0 1 10.1-.4 7 7 0 0 1 3.4 2.7 8.4 8.4 0 0 1 1.3 5c0 1-.2 2-.7 3-.4.8-1 1.6-1.7 2.3l-2 2.1c-.7.8-1.2 1.5-1.6 2.3a5 5 0 0 0-.5 2.8h-7.2Zm3.5 12.3c-1.3 0-2.5-.5-3.4-1.5a5 5 0 0 1-1.4-3.5 5 5 0 0 1 1.4-3.6c1-1 2-1.4 3.4-1.4 1.5 0 2.6.5 3.5 1.4a5 5 0 0 1 1.3 3.6c0 1.4-.4 2.5-1.3 3.5s-2 1.5-3.5 1.5Z"/></svg>