<svg xmlns="http://www.w3.org/2000/svg" fill="none" viewBox="0 0 160 161"><rect width="152.8" height="152.8" x="3.6" y="4" stroke="#fff" stroke-opacity=".7" stroke-width="7.1" rx="28.4"/><g filter="url(#a)"><path fill="#fff" d="M59.7 49a30 30 0 0 1 17.7 4.5 15 15 0 0 1 6.2 13c0 3-.6 5.8-1.8 8A14 14 0 0 1 77 80a22.3 22.3 0 0 1-7.7 3c-3 .6-6.5.9-10.3.9h-6.1V104h-7.6V50.4a94.2 94.2 0 0 1 14.5-1.3Zm.7 6.7c-3.3 0-5.8.1-7.5.3v21.4h5.7c2.7 0 5-.2 7.1-.5 2.1-.4 3.9-1 5.3-1.7a10 10 0 0 0 3.4-3.4 11 11 0 0 0 1.1-5.4 10 10 0 0 0-1.2-5.2 8.5 8.5 0 0 0-3.3-3.3c-1.4-.8-3-1.4-4.8-1.7-1.8-.3-3.8-.5-5.8-.5Zm41.8 43.1c3 0 5.1-.4 6.6-1.1a4 4 0 0 0 2.2-3.8 5 5 0 0 0-2.2-4.3c-1.4-1-3.7-2.2-7-3.5l-4.5-1.9c-1.4-.7-2.7-1.5-3.7-2.3-1-1-2-2-2.5-3.3-.7-1.2-1-2.8-1-4.6 0-3.6 1.4-6.5 4-8.6a17 17 0 0 1 11-3.2 28 28 0 0 1 9.3 1.3l1.7.5-1.3 6.3a22.6 22.6 0 0 0-9.8-2c-2 0-3.8.4-5.3 1.3a4 4 0 0 0-2.3 3.8c0 .8.2 1.6.5 2.3a7 7 0 0 0 1.6 1.9l2.7 1.5 3.7 1.5c2 .7 3.7 1.5 5.2 2.2 1.5.7 2.8 1.5 3.9 2.4 1 1 2 2.1 2.5 3.5.6 1.3.8 3 .8 4.9 0 3.7-1.4 6.6-4.2 8.5-2.8 2-6.8 3-12 3a30.1 30.1 0 0 1-12.6-2.3l1.3-6.3 4 1.4c1.9.6 4.3 1 7.4 1Z"/></g><defs><filter id="a" width="74.3" height="56.7" x="45.3" y="49.1" color-interpolation-filters="sRGB" filterUnits="userSpaceOnUse"><feFlood flood-opacity="0" result="BackgroundImageFix"/><feBlend in="SourceGraphic" in2="BackgroundImageFix" result="shape"/><feColorMatrix in="SourceAlpha" result="hardAlpha" values="0 0 0 0 0 0 0 0 0 0 0 0 0 0 0 0 0 0 127 0"/><feOffset dx="1.3" dy=".7"/><feGaussianBlur stdDeviation=".8"/><feComposite in2="hardAlpha" k2="-1" k3="1" operator="arithmetic"/><feColorMatrix values="0 0 0 0 1 0 0 0 0 1 0 0 0 0 1 0 0 0 0.15 0"/><feBlend in2="shape" result="effect1_innerShadow_665_5794"/></filter></defs></svg>