<svg width="256" height="256" viewBox="0 0 256 256" fill="none" xmlns="http://www.w3.org/2000/svg">
<path d="M107.163 37.2609C107.163 25.7043 116.492 16.3359 128 16.3359C139.508 16.3359 148.837 25.7043 148.837 37.2609V217.739C148.837 229.296 139.508 238.664 128 238.664C116.492 238.664 107.163 229.296 107.163 217.739V37.2609Z" fill="#000"/>
<path d="M220.465 107.883C231.254 107.883 240 116.666 240 127.5C240 138.334 231.254 147.117 220.465 147.117L35.5349 147.117C24.7461 147.117 16 138.334 16 127.5C16 116.666 24.7461 107.883 35.5349 107.883L220.465 107.883Z" fill="#000"/>
</svg>
