<svg xmlns="http://www.w3.org/2000/svg" fill="none" viewBox="0 0 160 161"><rect width="152.8" height="152.8" x="3.6" y="4" stroke="#fff" stroke-opacity=".7" stroke-width="7.1" rx="28.4"/><g filter="url(#a)"><path fill="#fff" d="M62.1 49a30 30 0 0 1 17.6 4.5c4.2 2.8 6.2 7.2 6.2 13 0 3-.5 5.8-1.7 8-1 2.2-2.7 4-4.9 5.5a22.3 22.3 0 0 1-7.7 3c-3 .6-6.4.9-10.3.9h-6V104h-7.7V50.4a94.2 94.2 0 0 1 14.5-1.3Zm.6 6.7c-3.2 0-5.7.1-7.4.3v21.4H61c2.6 0 5-.2 7-.5 2.2-.4 4-1 5.4-1.7a9 9 0 0 0 3.3-3.4 11 11 0 0 0 1.2-5.4 10 10 0 0 0-1.2-5.2 8.5 8.5 0 0 0-3.3-3.3c-1.4-.8-3-1.4-4.8-1.7a37 37 0 0 0-5.9-.5Zm47.4 6.6 2.1.2c.9 0 1.7.2 2.5.3l2.1.4 1.5.3L117 70l-2.9-.7a22.6 22.6 0 0 0-9.2 0l-2.6.5v34.4H95V64.9a46.3 46.3 0 0 1 15.1-2.6Z"/></g><defs><filter id="a" width="71.9" height="55.8" x="47.6" y="49.1" color-interpolation-filters="sRGB" filterUnits="userSpaceOnUse"><feFlood flood-opacity="0" result="BackgroundImageFix"/><feBlend in="SourceGraphic" in2="BackgroundImageFix" result="shape"/><feColorMatrix in="SourceAlpha" result="hardAlpha" values="0 0 0 0 0 0 0 0 0 0 0 0 0 0 0 0 0 0 127 0"/><feOffset dx="1.3" dy=".7"/><feGaussianBlur stdDeviation=".8"/><feComposite in2="hardAlpha" k2="-1" k3="1" operator="arithmetic"/><feColorMatrix values="0 0 0 0 1 0 0 0 0 1 0 0 0 0 1 0 0 0 0.15 0"/><feBlend in2="shape" result="effect1_innerShadow_665_5797"/></filter></defs></svg>