<svg xmlns="http://www.w3.org/2000/svg" fill="none" viewBox="0 0 256 256"><path fill="#000" d="M175.6 185A74.6 74.6 0 0 1 53 128.1v-1.8h14a8 8 0 0 0 7.2-4.3 8 8 0 0 0-.2-8.3L51.6 78.9c-3-4.8-11-4.8-13.8 0l-22.5 34.9a8 8 0 0 0-.2 8.3 8.3 8.3 0 0 0 7.2 4.3h14v1.7c.3 50.1 41.1 91 91.3 91 21.5 0 42.5-7.7 58.7-21.5 3.6-2.9 3.8-8.1 1-11.7a8.5 8.5 0 0 0-11.7-1Zm64.4-51a8.3 8.3 0 0 0-7.1-4.2h-14.1V128c-.3-50.1-41-91-91.2-91a91.3 91.3 0 0 0-58.8 21.5c-3.6 2.9-3.8 8.1-1 11.7 3 3.6 8.2 3.8 11.8 1A74.6 74.6 0 0 1 202 128v1.7h-14a8 8 0 0 0-7.2 4.3 8 8 0 0 0 .3 8.3l22.4 34.9a8 8 0 0 0 7 3.8 8 8 0 0 0 6.9-3.8l22.4-34.9a8.7 8.7 0 0 0 .2-8.3Z"/><path fill="#000" d="M93.7 127.7c0-.3.3-.6.6-.7 26.3-5.2 29.4-9.3 33.3-43.9 0-.4.4-.7.8-.7s.7.3.7.7c4 34.6 7 38.8 33.4 43.9.3 0 .6.4.6.7 0 .4-.3.7-.6.8-26.3 5-29.4 9.2-33.4 43.8 0 .4-.3.7-.7.7a.8.8 0 0 1-.8-.7c-3.9-34.6-7-38.7-33.3-43.8a.8.8 0 0 1-.6-.8Z"/></svg>