<svg xmlns="http://www.w3.org/2000/svg" fill="none" viewBox="0 0 164 164"><circle cx="82" cy="82" r="79" stroke="#fff" stroke-opacity=".65" stroke-width="6"/><path fill="#fff" d="M62.273 50.498c-.054 1.398.195 2.925.606 4.453.785 2.908 2.085 5.572 3.618 8.088 3.492 5.722 7.894 10.621 12.67 15.17.391.374.857.69 1.355.93.5.26.998.26 1.514.037a3.946 3.946 0 0 0 1.32-.95c1.657-1.714 3.295-3.43 4.864-5.201 2.209-2.517 4.313-5.105 6.22-7.882 1.73-2.516 3.279-5.163 4.418-8.033 1.14-2.853 1.693-5.795 1.319-8.888-.624-5.105-2.708-9.43-6.433-12.822-4.404-4.003-9.535-5.606-15.309-4.713-9.39 1.455-16.198 10.102-16.162 19.811Z" style="mix-blend-mode:lighten"/><path fill="#fff" d="M110.873 120.078c-1.182.036-2.509-.111-3.836-.392-3.926-.86-7.26-2.645-9.822-5.809-1.558-1.93-2.868-4.021-3.998-6.22-1.327-2.591-2.436-5.291-3.404-8.025a87.257 87.257 0 0 1-2.958-10.098c-.429-1.913.053-3.111 2.169-3.77 2.688-.84 5.395-1.59 8.155-2.2 4.569-1 9.175-1.643 13.872-1.485 1.328.053 2.652.196 3.962.428 3.8.662 7.025 2.414 9.659 5.183 4.5 4.719 6.29 10.35 5.18 16.767-1.594 9.17-9.732 15.693-18.979 15.621Zm-59.186 0c1.182.036 2.509-.111 3.836-.392 3.925-.86 7.26-2.645 9.821-5.809 1.559-1.93 2.869-4.021 3.998-6.22 1.328-2.591 2.437-5.291 3.404-8.025a87.237 87.237 0 0 0 2.958-10.098c.43-1.913-.053-3.111-2.169-3.77-2.687-.84-5.395-1.59-8.154-2.2-4.57-1-9.175-1.643-13.873-1.485a29.45 29.45 0 0 0-3.962.428c-3.8.662-7.025 2.414-9.66 5.183-4.499 4.719-6.289 10.35-5.179 16.767 1.595 9.17 9.732 15.693 18.98 15.621Z"/></svg>