<svg xmlns="http://www.w3.org/2000/svg" fill="none" viewBox="0 0 256 256"><path fill="#AFAFB6" d="M143 197c0-5 4-9 9-9h57c2 0 4-2 4-4V73c0-2-2-4-4-4H45c-2 0-4 2-4 4v4c0 5-4 9-10 9-5 0-9-4-9-9v-4c0-13 10-23 23-23h164c13 0 23 10 23 23v111c0 13-10 23-23 23h-57c-5 0-9-4-9-10Z"/><path fill="#fff" d="M73 200a8 8 0 0 1-13-5 27 27 0 0 0-26-26 8 8 0 1 1 1-16 44 44 0 0 1 41 41 8 8 0 0 1-3 6Z"/><path fill="#fff" d="M100 200a8 8 0 0 1-14-5 54 54 0 0 0-52-53 8 8 0 1 1 0-16 71 71 0 0 1 69 68 8 8 0 0 1-3 6Z"/><path fill="#fff" d="M127 197a8 8 0 0 1-14-5 81 81 0 0 0-76-76 8 8 0 0 1 1-17 97 97 0 0 1 91 92 8 8 0 0 1-2 6Z"/></svg>