<svg width="256" height="256" viewBox="0 0 256 256" fill="none" xmlns="http://www.w3.org/2000/svg">
<path d="M212.929 162.411C204.844 181.648 190.478 197.577 172.176 207.598C153.873 217.62 132.715 221.143 112.153 217.592C91.5903 214.041 72.8384 203.627 58.9567 188.048C45.436 172.874 37.3129 153.673 35.8225 133.434C41.2753 131.838 45.258 126.8 45.258 120.832C45.258 113.581 39.38 107.703 32.129 107.703C24.8781 107.703 19 113.581 19 120.832C19 126.417 22.4883 131.188 27.4054 133.085C28.8408 155.514 37.7429 176.827 52.7049 193.618C67.8463 210.611 88.2997 221.971 110.728 225.843C133.156 229.716 156.234 225.874 176.197 214.943C196.161 204.012 211.83 186.638 220.649 165.656C229.467 144.674 230.914 121.322 224.754 99.4119C218.594 77.5015 205.19 58.3256 186.729 45.0133C168.268 31.701 145.841 25.0383 123.106 26.1122C100.372 27.1861 78.672 35.9333 61.5483 50.9264C59.8087 52.4496 59.6332 55.0947 61.1564 56.8344C62.6796 58.574 65.3247 58.7495 67.0644 57.2263C82.7635 43.4804 102.658 35.4609 123.501 34.4763C144.345 33.4917 164.906 39.6002 181.831 51.8051C198.756 64.0099 211.045 81.5906 216.693 101.678C222.341 121.766 221.014 143.175 212.929 162.411Z" fill="white" fill-opacity="0.25"/>
<path d="M195.164 131.724C194.146 147.074 187.955 161.626 177.603 173.005C167.25 184.384 153.347 191.919 138.161 194.38C122.975 196.84 107.404 194.082 93.9878 186.554C80.5716 179.026 70.1027 167.174 64.2892 152.931C58.4758 138.688 57.661 122.895 61.978 108.13C66.2949 93.3641 75.4886 80.4974 88.0589 71.6291C100.629 62.7608 115.834 58.4145 131.192 59.2994C146.55 60.1843 161.155 66.2482 172.624 76.5015" stroke="white" stroke-opacity="0.5" stroke-width="8.37346" stroke-linecap="round" stroke-linejoin="round"/>
<path d="M156.67 154.913C153.189 158.806 148.974 161.976 144.268 164.242C139.562 166.507 134.455 167.823 129.24 168.115C124.025 168.407 118.804 167.668 113.874 165.942C108.944 164.216 104.403 161.536 100.509 158.054C96.6149 154.573 93.4448 150.359 91.1795 145.653C88.9143 140.946 87.5982 135.84 87.3064 130.625C87.0147 125.41 87.753 120.188 89.4791 115.258C91.2053 110.329 93.8855 105.787 97.3668 101.893C100.848 97.9995 105.062 94.8294 109.769 92.5642C114.475 90.2989 119.582 88.9828 124.797 88.6911C130.012 88.3993 135.233 89.1376 140.163 90.8638C145.093 92.5899 149.634 95.2702 153.528 98.7515C157.422 102.233 160.592 106.447 162.857 111.153C165.122 115.86 166.438 120.966 166.73 126.181C167.022 131.396 166.284 136.618 164.557 141.547C162.831 146.477 160.151 151.019 156.67 154.913L156.67 154.913Z" stroke="white" stroke-opacity="0.8" stroke-width="8.37346" stroke-linecap="round" stroke-linejoin="round"/>
<circle cx="126.929" cy="128.571" r="13.129" transform="rotate(90 126.929 128.571)" fill="white"/>
</svg>
