<svg xmlns="http://www.w3.org/2000/svg" fill="#E2E2E9" class="w-075" viewBox="0 0 171 184"><path d="M23.4 172.4a12 12 0 0 0 12.1 11h100c6.4 0 11.6-4.9 12.1-11L158.8 55H12.2l11.2 117.4ZM110 91.7c0-3.3 2.7-6.2 6.2-6.2 3.3 0 6.2 2.7 6.2 6.2v55c0 3.3-2.7 6.2-6.2 6.2a6.2 6.2 0 0 1-6.2-6.2v-55Zm-30.7 0c0-3.3 2.7-6.2 6.2-6.2 3.3 0 6.2 2.7 6.2 6.2v55c0 3.3-2.7 6.2-6.2 6.2a6.2 6.2 0 0 1-6.2-6.2v-55Zm-30.5 0c0-3.3 2.7-6.2 6.2-6.2 3.3 0 6.2 2.7 6.2 6.2v55c0 3.3-2.7 6.2-6.2 6.2a6.2 6.2 0 0 1-6.2-6.2v-55Zm110-73.4H110v-6.1A12 12 0 0 0 98 0H73.3c-6.7 0-12.1 5.4-12.1 12.2v6.1h-49C5.4 18.3 0 23.7 0 30.5c0 6.8 5.4 12.2 12.2 12.2h146.6a12.2 12.2 0 1 0 0-24.4Z"/></svg>