<svg xmlns="http://www.w3.org/2000/svg" fill="none" viewBox="0 0 159 160"><mask id="a" width="111" height="98" x="21" y="31" maskUnits="userSpaceOnUse" style="mask-type:luminance"><path fill="#fff" d="M114.176 103.771c-2.864 0-4.009-1.718-4.009-1.718-.191-.764-.382-12.125-.478-23.39-.095-11.742 0-23.388.573-23.484 3.341-6.205 13.843-18.711 13.843-18.711-19.666 3.914-30.358 16.802-30.358 16.802-3.15-2.482-9.642-2.1-9.642-2.1 3.054 1.622 6.014 6.491 6.014 10.5v39.523s-6.587 5.824-11.647 5.824c-3.055 0-4.868-1.623-5.919-2.96-.668-.954-.954-1.718-.954-1.718V53.556c-.669.477-1.528.86-2.387.86-1.05 0-2.196-.573-2.96-2.101-.572-1.241-.954-2.96-.954-5.632 0-8.974 10.215-14.988 10.215-14.988-12.888 3.436-24.917 10.119-40.86 28.448-15.942 18.33-12.887 33.413-12.887 33.413s4.296-10.501 14.892-21.48c5.06-5.155 8.783-6.873 11.36-6.969 2.865 0 4.201 2.1 4.201 4.01v37.136c0 3.628-2.386 4.487-4.582 4.391-1.814 0-3.532-.668-3.532-.668 10.883 15.752 36.85 18.043 36.85 18.043L92.41 115.8l.287.19 10.501 8.879c19.093-11.361 28.353-32.459 28.353-32.459-8.687 9.261-14.129 11.361-17.375 11.361Z"/></mask><g mask="url(#a)"><mask id="b" width="674" height="450" x="-76" y="-92" maskUnits="userSpaceOnUse" style="mask-type:luminance"><path fill="#fff" d="M597.995-91.647H-75.609v449.069h673.604V-91.647Z"/></mask><g mask="url(#b)"><path fill="#fff" d="M132.601 30.549H20.334v98.711h112.267V30.549Z"/></g></g><mask id="c" width="159" height="160" x="0" y="0" maskUnits="userSpaceOnUse" style="mask-type:luminance"><path fill="#fff" d="M79.427 3.532c20.239 0 39.332 7.924 53.652 22.435 14.32 14.415 22.243 33.699 22.243 54.129 0 20.429-7.923 39.618-22.243 54.128-14.32 14.416-33.413 22.435-53.652 22.435-20.239 0-39.332-7.924-53.651-22.435-14.32-14.415-22.244-33.699-22.244-54.128 0-20.43 7.924-39.619 22.244-54.13 14.32-14.51 33.317-22.434 53.651-22.434Zm0-3.532C35.513 0 0 35.8 0 80s35.513 80 79.332 80c43.818 0 79.331-35.8 79.331-80 .096-44.2-35.417-80-79.236-80Z"/></mask><g mask="url(#c)"><mask id="d" width="674" height="450" x="-76" y="-92" maskUnits="userSpaceOnUse" style="mask-type:luminance"><path fill="#fff" d="M597.995-91.647H-75.609v449.069h673.604V-91.647Z"/></mask><g mask="url(#d)"><path fill="#fff" fill-opacity=".65" d="M159.809-1.146H-1.146v162.292h160.955V-1.146Z"/></g></g></svg>